<?xml version="1.0" encoding="utf-8"?>
<!-- Generator: Adobe Illustrator 16.0.0, SVG Export Plug-In . SVG Version: 6.00 Build 0)  -->
<!DOCTYPE svg PUBLIC "-//W3C//DTD SVG 1.1//EN" "http://www.w3.org/Graphics/SVG/1.1/DTD/svg11.dtd">
<svg version="1.1" id="Layer_1" xmlns="http://www.w3.org/2000/svg" xmlns:xlink="http://www.w3.org/1999/xlink" x="0px" y="0px"
	 width="100px" height="100px" viewBox="0 0 100 100" enable-background="new 0 0 100 100" xml:space="preserve">
<g>
	<path d="M22.187,43.082v-1.038h3.191v-3.037h1.208v2.99c0.878-0.031,1.764-0.075,2.657-0.132s1.697-0.137,2.409-0.24v0.992
		c-0.517,0.082-1.074,0.152-1.673,0.209s-1.211,0.105-1.836,0.147c-0.625,0.041-1.25,0.069-1.875,0.085
		c-0.625,0.016-1.216,0.023-1.774,0.023H22.187z M23.24,35.877h6.957c-0.011,0.403-0.029,0.821-0.054,1.255
		c-0.026,0.434-0.06,0.863-0.101,1.286c-0.041,0.424-0.09,0.84-0.147,1.247c-0.057,0.408-0.122,0.788-0.194,1.139h-1.208
		c0.134-0.65,0.243-1.291,0.326-1.921c0.083-0.63,0.134-1.286,0.155-1.968H23.24V35.877z M29.004,49.558
		c-0.764,0-1.436-0.066-2.014-0.201c-0.579-0.134-1.064-0.323-1.456-0.565c-0.393-0.243-0.69-0.526-0.891-0.853
		c-0.202-0.325-0.302-0.679-0.302-1.061s0.101-0.738,0.302-1.069c0.201-0.33,0.498-0.614,0.891-0.853
		c0.392-0.237,0.877-0.423,1.456-0.558c0.579-0.134,1.25-0.201,2.014-0.201c0.754,0,1.42,0.067,1.999,0.201
		c0.578,0.135,1.063,0.323,1.456,0.565c0.393,0.243,0.689,0.527,0.891,0.853c0.201,0.325,0.302,0.68,0.302,1.062
		c0,0.393-0.101,0.751-0.302,1.076c-0.202,0.326-0.496,0.607-0.883,0.845s-0.873,0.424-1.457,0.558
		C30.427,49.491,29.758,49.558,29.004,49.558z M29.004,48.52c1.157,0,2.02-0.165,2.587-0.495c0.568-0.331,0.853-0.713,0.853-1.146
		c0-0.435-0.284-0.816-0.853-1.146c-0.568-0.331-1.431-0.496-2.587-0.496c-1.146,0-2.009,0.165-2.587,0.496
		c-0.579,0.33-0.868,0.712-0.868,1.146c0,0.434,0.289,0.815,0.868,1.146C26.995,48.354,27.857,48.52,29.004,48.52z M33.528,44.104
		H32.32v-8.785h1.208v3.796h2.076v1.038h-2.076V44.104z"/>
	<path d="M44.033,35.97v1.349h3.223v-1.999h1.208v8.506h-1.208v-2.742h-3.223v1.379h-6.43V35.97H44.033z M38.812,41.424h4.013
		v-4.416h-4.013V41.424z M43.909,49.558c-0.754,0-1.42-0.069-1.999-0.209c-0.579-0.14-1.067-0.333-1.464-0.581
		s-0.697-0.54-0.898-0.875c-0.202-0.336-0.302-0.7-0.302-1.093c0-0.402,0.101-0.771,0.302-1.107
		c0.201-0.336,0.501-0.628,0.898-0.875c0.397-0.248,0.886-0.439,1.464-0.573c0.578-0.135,1.245-0.202,1.999-0.202
		s1.423,0.067,2.006,0.202c0.583,0.134,1.072,0.325,1.464,0.573c0.393,0.247,0.689,0.542,0.891,0.883
		c0.201,0.341,0.302,0.713,0.302,1.115c0,0.393-0.098,0.757-0.294,1.093c-0.196,0.335-0.491,0.625-0.883,0.867
		c-0.393,0.243-0.881,0.434-1.464,0.573S44.673,49.558,43.909,49.558z M43.909,48.52c0.579,0,1.084-0.046,1.519-0.139
		c0.434-0.094,0.792-0.217,1.077-0.372s0.499-0.336,0.643-0.542c0.145-0.207,0.217-0.424,0.217-0.651
		c0-0.475-0.287-0.883-0.86-1.224s-1.438-0.512-2.595-0.512c-0.579,0-1.082,0.044-1.511,0.132s-0.788,0.209-1.077,0.364
		s-0.506,0.339-0.651,0.55c-0.145,0.212-0.217,0.437-0.217,0.674c0,0.228,0.072,0.444,0.217,0.651
		c0.145,0.206,0.362,0.39,0.651,0.55s0.648,0.286,1.077,0.38C42.827,48.474,43.33,48.52,43.909,48.52z M47.271,38.356h-3.238v1.688
		h3.238V38.356z"/>
	<path d="M53.235,40.417v-4.71h8.987v1.038h-7.778v2.634h7.948v1.038h-4.075v1.905h6.151v1.038H50.974v-1.038h6.136v-1.905H53.235z
		 M52.941,46.955c0-0.774,0.396-1.402,1.186-1.883c0.79-0.479,1.99-0.72,3.602-0.72c1.602,0,2.8,0.24,3.595,0.72
		c0.796,0.48,1.193,1.108,1.193,1.883c0,0.382-0.104,0.733-0.31,1.054c-0.207,0.32-0.512,0.597-0.914,0.829
		c-0.403,0.232-0.901,0.413-1.495,0.542c-0.595,0.129-1.284,0.193-2.069,0.193c-0.784,0-1.474-0.064-2.068-0.193
		c-0.594-0.129-1.092-0.31-1.495-0.542c-0.402-0.232-0.707-0.509-0.914-0.829C53.045,47.688,52.941,47.337,52.941,46.955z
		 M54.15,46.955c0,0.207,0.066,0.403,0.201,0.589c0.134,0.186,0.343,0.354,0.627,0.504c0.284,0.149,0.653,0.268,1.108,0.355
		c0.454,0.088,1.002,0.132,1.642,0.132c0.641,0,1.188-0.044,1.643-0.132c0.455-0.088,0.824-0.206,1.108-0.355
		c0.283-0.15,0.493-0.318,0.627-0.504c0.135-0.186,0.201-0.382,0.201-0.589c0-0.196-0.066-0.39-0.201-0.581
		c-0.134-0.191-0.344-0.358-0.627-0.504c-0.284-0.145-0.653-0.261-1.108-0.349c-0.454-0.087-1.002-0.131-1.643-0.131
		c-0.64,0-1.188,0.044-1.642,0.131c-0.455,0.088-0.824,0.204-1.108,0.349c-0.284,0.146-0.493,0.313-0.627,0.504
		C54.217,46.565,54.15,46.759,54.15,46.955z"/>
	<path d="M72.852,41.207v1.905h3.857v3.642h-7.871v1.627h8.259v1.038H67.63v-3.673h7.886V44.15H67.63v-1.038h3.966v-1.905h-6.15
		v-1.038h9.637c0.093-0.589,0.171-1.162,0.232-1.72c0.063-0.558,0.104-1.131,0.124-1.72H67.49v-1.038h9.188
		c-0.021,0.878-0.067,1.688-0.139,2.433c-0.073,0.743-0.155,1.425-0.248,2.045h2.618v1.038H72.852z"/>
</g>
</svg>
