<?xml version="1.0" encoding="utf-8"?>
<!-- Generator: Adobe Illustrator 16.0.0, SVG Export Plug-In . SVG Version: 6.00 Build 0)  -->
<!DOCTYPE svg PUBLIC "-//W3C//DTD SVG 1.1//EN" "http://www.w3.org/Graphics/SVG/1.1/DTD/svg11.dtd">
<svg version="1.1" id="Layer_1" xmlns="http://www.w3.org/2000/svg" xmlns:xlink="http://www.w3.org/1999/xlink" x="0px" y="0px"
	 width="200px" height="100px" viewBox="0 0 200 100" enable-background="new 0 0 200 100" xml:space="preserve">
<g>
	<path d="M43.571,32.091h-0.993l-0.081,5.981c0.286-0.018,0.565-0.049,0.838-0.094c0.272-0.044,0.53-0.103,0.771-0.174v0.872
		c-0.456,0.152-0.945,0.248-1.468,0.289c-0.523,0.04-1.066,0.06-1.629,0.06h-3.232v-0.898h1.18l-0.134-6.035h-0.885v-0.898h5.633
		V32.091z M41.479,38.126l0.081-6.035h-1.717l0.134,6.035H41.479z M44.925,42.029v-5.164h-1.449v-0.898h1.462v-1.784h-1.462v-0.898
		h1.449v-3.031h1.006v11.775H44.925z M48.171,30.12v12.218h-1.02V30.12H48.171z"/>
	<path d="M50.222,36.838V35.94h2.763v-2.628h1.046V35.9c0.76-0.027,1.526-0.065,2.3-0.114c0.773-0.049,1.469-0.118,2.085-0.208
		v0.858c-0.447,0.072-0.93,0.132-1.448,0.181c-0.519,0.049-1.048,0.092-1.589,0.127s-1.082,0.061-1.623,0.074
		c-0.541,0.014-1.053,0.02-1.536,0.02H50.222z M51.134,30.602h6.021c-0.009,0.349-0.024,0.711-0.047,1.086s-0.051,0.747-0.087,1.113
		c-0.036,0.367-0.079,0.727-0.127,1.08c-0.049,0.354-0.105,0.682-0.167,0.986h-1.046c0.116-0.563,0.21-1.118,0.282-1.663
		c0.071-0.545,0.116-1.113,0.134-1.703h-4.962V30.602z M56.124,42.444c-0.662,0-1.243-0.058-1.744-0.174
		c-0.501-0.116-0.921-0.279-1.261-0.489c-0.34-0.21-0.597-0.456-0.771-0.738s-0.262-0.588-0.262-0.918
		c0-0.331,0.087-0.639,0.262-0.926c0.174-0.286,0.431-0.532,0.771-0.737s0.76-0.367,1.261-0.483c0.5-0.116,1.082-0.174,1.744-0.174
		c0.652,0,1.229,0.058,1.73,0.174c0.5,0.116,0.92,0.279,1.261,0.49c0.339,0.21,0.597,0.456,0.771,0.737s0.261,0.588,0.261,0.919
		c0,0.34-0.087,0.65-0.261,0.932c-0.174,0.281-0.429,0.525-0.765,0.73c-0.335,0.206-0.755,0.367-1.261,0.483
		C57.355,42.386,56.776,42.444,56.124,42.444z M56.124,41.546c1.001,0,1.748-0.143,2.239-0.429s0.738-0.617,0.738-0.992
		s-0.246-0.707-0.738-0.993s-1.238-0.429-2.239-0.429c-0.993,0-1.739,0.143-2.24,0.429c-0.501,0.286-0.751,0.617-0.751,0.993
		s0.25,0.706,0.751,0.992C54.384,41.403,55.131,41.546,56.124,41.546z M60.04,37.724h-1.046V30.12h1.046v3.286h1.797v0.898H60.04
		V37.724z"/>
	<path d="M62.99,39.708V38.81h2.467c0.456,0,0.953-0.007,1.489-0.02c0.537-0.014,1.08-0.036,1.629-0.067
		c0.55-0.031,1.088-0.071,1.616-0.121c0.527-0.049,1.01-0.105,1.448-0.167v0.898c-0.438,0.072-0.917,0.132-1.435,0.181
		c-0.519,0.049-1.049,0.087-1.589,0.114c-0.541,0.027-1.08,0.047-1.616,0.061c-0.537,0.013-1.046,0.02-1.529,0.02H62.99z
		 M70.125,33.928c0,0.438-0.074,0.845-0.221,1.221c-0.148,0.375-0.358,0.7-0.63,0.972c-0.273,0.273-0.604,0.487-0.993,0.644
		C67.892,36.921,67.456,37,66.973,37s-0.918-0.078-1.308-0.235c-0.389-0.156-0.72-0.371-0.992-0.644
		c-0.273-0.272-0.483-0.597-0.63-0.972s-0.221-0.783-0.221-1.221s0.074-0.843,0.221-1.214c0.147-0.371,0.357-0.695,0.63-0.972
		c0.272-0.277,0.604-0.494,0.992-0.65c0.389-0.156,0.825-0.235,1.308-0.235s0.919,0.079,1.308,0.235
		c0.389,0.157,0.72,0.374,0.993,0.65c0.272,0.277,0.482,0.602,0.63,0.972C70.051,33.085,70.125,33.49,70.125,33.928z M69.079,33.928
		c0-0.67-0.19-1.2-0.57-1.589c-0.38-0.389-0.892-0.583-1.536-0.583c-0.644,0-1.156,0.194-1.536,0.583
		c-0.38,0.389-0.57,0.919-0.57,1.589s0.19,1.2,0.57,1.589c0.38,0.389,0.892,0.583,1.536,0.583c0.644,0,1.156-0.195,1.536-0.583
		C68.889,35.128,69.079,34.599,69.079,33.928z M73.276,30.12v12.218H72.23V30.12H73.276z"/>
	<path d="M79.083,38.984c0.813-0.402,1.524-0.863,2.132-1.381c0.607-0.519,1.126-1.077,1.556-1.676
		c0.429-0.599,0.769-1.228,1.02-1.884c0.25-0.657,0.42-1.326,0.509-2.005c-1.1,0.027-2.186,0.041-3.258,0.041h-1.476v-0.898h4.01
		c0.304,0,0.612-0.002,0.925-0.007c0.313-0.004,0.631-0.011,0.953-0.02c-0.135,1.869-0.657,3.518-1.569,4.949
		s-2.28,2.633-4.104,3.607L79.083,38.984z M87.962,42.337V30.12h1.046v12.218H87.962z"/>
	<path d="M97.846,30.656c-0.027,0.59-0.142,1.147-0.343,1.67s-0.472,1.026-0.811,1.509c0.482,0.304,0.954,0.657,1.414,1.06
		c0.461,0.402,0.879,0.845,1.255,1.328l-0.818,0.67c-0.742-0.885-1.569-1.645-2.481-2.28c-0.536,0.572-1.145,1.082-1.824,1.529
		c-0.679,0.447-1.399,0.814-2.159,1.1l-0.697-0.764c0.725-0.295,1.389-0.635,1.992-1.02c0.604-0.384,1.131-0.793,1.582-1.227
		s0.813-0.878,1.087-1.334c0.272-0.456,0.439-0.907,0.503-1.354c-0.51,0.018-0.993,0.029-1.449,0.034s-0.938,0.006-1.448,0.006
		h-1.422v-0.898h3.85c0.286,0,0.574-0.002,0.865-0.006C97.23,30.671,97.532,30.665,97.846,30.656z M101.507,42.377h-1.046v-3.433
		h-6.827v-0.899h7.873V42.377z M100.461,33.834h-2.173v-0.898h2.173V30.12h1.046v7.202h-1.046V33.834z"/>
	<path d="M107.301,36.838V35.94h2.763v-2.628h1.046V35.9c0.76-0.027,1.526-0.065,2.3-0.114c0.773-0.049,1.469-0.118,2.086-0.208
		v0.858c-0.447,0.072-0.931,0.132-1.449,0.181c-0.519,0.049-1.048,0.092-1.589,0.127s-1.082,0.061-1.623,0.074
		c-0.541,0.014-1.053,0.02-1.535,0.02H107.301z M108.213,30.602h6.021c-0.009,0.349-0.025,0.711-0.047,1.086
		c-0.022,0.375-0.052,0.747-0.088,1.113c-0.035,0.367-0.078,0.727-0.127,1.08c-0.049,0.354-0.105,0.682-0.168,0.986h-1.046
		c0.116-0.563,0.21-1.118,0.281-1.663c0.072-0.545,0.116-1.113,0.135-1.703h-4.962V30.602z M113.201,42.444
		c-0.661,0-1.242-0.058-1.743-0.174s-0.921-0.279-1.261-0.489c-0.34-0.21-0.597-0.456-0.771-0.738
		c-0.174-0.282-0.261-0.588-0.261-0.918c0-0.331,0.087-0.639,0.261-0.926c0.175-0.286,0.432-0.532,0.771-0.737
		s0.76-0.367,1.261-0.483s1.082-0.174,1.743-0.174c0.652,0,1.229,0.058,1.73,0.174c0.5,0.116,0.921,0.279,1.261,0.49
		c0.34,0.21,0.597,0.456,0.771,0.737c0.175,0.282,0.262,0.588,0.262,0.919c0,0.34-0.087,0.65-0.262,0.932
		c-0.174,0.281-0.429,0.525-0.764,0.73c-0.336,0.206-0.756,0.367-1.261,0.483C114.433,42.386,113.854,42.444,113.201,42.444z
		 M113.201,41.546c1.002,0,1.748-0.143,2.24-0.429c0.491-0.286,0.737-0.617,0.737-0.992s-0.246-0.707-0.737-0.993
		c-0.492-0.286-1.238-0.429-2.24-0.429c-0.992,0-1.739,0.143-2.239,0.429c-0.501,0.286-0.751,0.617-0.751,0.993
		s0.25,0.706,0.751,0.992C111.462,41.403,112.209,41.546,113.201,41.546z M117.117,37.724h-1.046V30.12h1.046v3.286h1.798v0.898
		h-1.798V37.724z"/>
	<path d="M126.21,30.683v1.167H129v-1.73h1.046v7.363H129v-2.374h-2.79v1.194h-5.565v-5.62H126.21z M121.69,35.403h3.474v-3.822
		h-3.474V35.403z M126.103,42.444c-0.652,0-1.229-0.06-1.729-0.181c-0.501-0.121-0.924-0.289-1.268-0.503
		c-0.345-0.215-0.604-0.468-0.778-0.758c-0.174-0.291-0.261-0.606-0.261-0.946c0-0.349,0.087-0.668,0.261-0.959
		c0.175-0.29,0.434-0.543,0.778-0.757c0.344-0.215,0.767-0.38,1.268-0.497c0.5-0.116,1.077-0.174,1.729-0.174
		s1.231,0.059,1.737,0.174c0.505,0.117,0.927,0.282,1.268,0.497c0.339,0.214,0.597,0.469,0.771,0.764
		c0.175,0.295,0.262,0.617,0.262,0.966c0,0.34-0.085,0.655-0.255,0.945s-0.425,0.541-0.765,0.751s-0.762,0.375-1.268,0.497
		C127.348,42.384,126.765,42.444,126.103,42.444z M126.103,41.546c0.501,0,0.939-0.04,1.314-0.121
		c0.376-0.081,0.687-0.188,0.933-0.322c0.245-0.134,0.431-0.291,0.557-0.47c0.125-0.179,0.188-0.366,0.188-0.563
		c0-0.411-0.248-0.765-0.744-1.06c-0.497-0.295-1.245-0.442-2.247-0.442c-0.501,0-0.937,0.038-1.308,0.114
		c-0.371,0.076-0.682,0.181-0.932,0.315c-0.251,0.134-0.438,0.293-0.563,0.476c-0.125,0.184-0.188,0.378-0.188,0.583
		c0,0.197,0.063,0.385,0.188,0.563s0.313,0.337,0.563,0.476c0.25,0.139,0.561,0.248,0.932,0.329S125.602,41.546,126.103,41.546z
		 M129.013,32.748h-2.803v1.462h2.803V32.748z"/>
	<path d="M134.177,34.532v-4.077h7.779v0.899h-6.732v2.28h6.88v0.898h-3.527v1.649h5.324v0.899h-11.682v-0.899h5.312v-1.649H134.177
		z M133.922,40.191c0-0.67,0.343-1.214,1.026-1.629c0.684-0.416,1.724-0.624,3.118-0.624c1.386,0,2.423,0.208,3.111,0.624
		c0.688,0.416,1.033,0.959,1.033,1.629c0,0.331-0.09,0.635-0.269,0.912c-0.179,0.277-0.442,0.516-0.791,0.717
		s-0.78,0.357-1.295,0.469c-0.514,0.112-1.11,0.168-1.79,0.168s-1.276-0.056-1.79-0.168c-0.515-0.112-0.946-0.268-1.295-0.469
		s-0.612-0.44-0.791-0.717C134.012,40.826,133.922,40.522,133.922,40.191z M134.969,40.191c0,0.179,0.058,0.349,0.174,0.51
		c0.116,0.161,0.297,0.306,0.543,0.436c0.246,0.13,0.565,0.232,0.959,0.309c0.394,0.076,0.867,0.114,1.422,0.114
		s1.028-0.039,1.422-0.114c0.393-0.076,0.713-0.179,0.959-0.309c0.245-0.129,0.427-0.275,0.543-0.436
		c0.116-0.161,0.174-0.331,0.174-0.51c0-0.17-0.058-0.337-0.174-0.503s-0.298-0.311-0.543-0.436
		c-0.246-0.125-0.566-0.226-0.959-0.302c-0.394-0.076-0.867-0.114-1.422-0.114s-1.028,0.038-1.422,0.114
		c-0.394,0.076-0.713,0.177-0.959,0.302c-0.246,0.125-0.427,0.271-0.543,0.436S134.969,40.021,134.969,40.191z"/>
	<path d="M151.155,35.216v1.649h3.34v3.152h-6.813v1.408h7.148v0.898h-8.194v-3.178h6.826v-1.381h-6.826v-0.899h3.434v-1.649h-5.324
		v-0.898h8.342c0.08-0.51,0.147-1.006,0.201-1.489s0.089-0.979,0.107-1.489h-6.88v-0.898h7.952c-0.018,0.76-0.058,1.462-0.12,2.105
		s-0.135,1.234-0.215,1.771h2.267v0.898H151.155z"/>
	<path d="M159.443,39.588c0.25,0,0.456,0.081,0.617,0.241c0.161,0.161,0.241,0.362,0.241,0.604c0,0.25-0.08,0.456-0.241,0.617
		c-0.161,0.161-0.367,0.241-0.617,0.241c-0.26,0-0.468-0.081-0.624-0.241c-0.156-0.161-0.234-0.367-0.234-0.617
		c0-0.241,0.078-0.442,0.234-0.604C158.976,39.668,159.184,39.588,159.443,39.588z M158.8,30.683h1.301l-0.255,7.484h-0.858
		L158.8,30.683z"/>
</g>
</svg>
